# xmcd
#
# Track frame offsets:
#	150
#	26757
#	40497
#	56231
#	73039
#	98177
#	123590
#	148444
#	172759
#	189986
#	224887
#	238886
#	260955
#	281147
#
# Disc length: 3991 seconds
#
# Revision: 1
# Processed by: cddbd v1.5.2PL0 Copyright (c) Steve Scherf et al.
# Submitted via: audiograbber 1.83.01
#
DISCID=f00f950e
DTITLE=Peter Green - Man of the World 1968-1988 [CD1]
DYEAR=1968
DGENRE=Blues
TTITLE0=Man of the World (1998 Remaster)
TTITLE1=Apostle
TTITLE2=Loser Two Times
TTITLE3=Fast Talking Woman Blues - Fleetwood Mac (2001 Remaster)
TTITLE4=Walkin' the Road
TTITLE5=The Green Manalishi (with the Two Prong Crown) (1998 Remaster)
TTITLE6=Cryin' Won't Bring You Back
TTITLE7=Trying to Hit My Head Against the Wall
TTITLE8=You Won't See Me Anymore (2005 Remaster)
TTITLE9=Got to See Her Tonight
TTITLE10=Born on the Wild Side
TTITLE11=Shining Star (2005 Remaster)
TTITLE12=Same Old Blues (2005 Remaster)
TTITLE13=Long Grey Mare - Fleetwood Mac (2001 Remaster)
EXTD=
EXTT0=
EXTT1=
EXTT2=
EXTT3=
EXTT4=
EXTT5=
EXTT6=
EXTT7=
EXTT8=
EXTT9=
EXTT10=
EXTT11=
EXTT12=
EXTT13=
PLAYORDER=
